<svg xmlns="http://www.w3.org/2000/svg" width="450" height="450" viewBox="25 0 475 450">
  <g>
    <path d="M250.062,219.25c-.68-.928-1.2-1.651-1.732-2.36-3.806-5.028-7.6-10.065-11.439-15.069a3.526,3.526,0,0,1-.65-2.937c.959-5.738,1.88-11.481,2.838-17.219a2.445,2.445,0,0,0-.494-2.051c-2-2.582-3.985-5.174-5.914-7.808a1.589,1.589,0,0,0-2.109-.61,9.634,9.634,0,0,1-11.015-3.4c-2.759-3.953-2-10.235,2.593-13.693a10.279,10.279,0,0,1,12.713.09,9.6,9.6,0,0,1,1.932,11.756,1.962,1.962,0,0,0,.232,2.55c2.412,3.108,4.746,6.278,7.136,9.4a2.7,2.7,0,0,1,.531,2.219c-.86,5.2-1.751,10.4-2.535,15.607-.625,4.158-1.02,2.773,1.475,6.072q11.131,14.726,22.292,29.429a3,3,0,0,1,.6,2.456c-.714,4.289-1.384,8.583-2.13,12.868a3.433,3.433,0,0,0,.7,2.905q9.507,12.438,18.946,24.927c.213.28.444.546.811,1a7.6,7.6,0,0,0,.424-1.123c.323-1.818.669-3.635.893-5.46a2.545,2.545,0,0,0-.4-1.636c-1.066-1.534-2.28-2.964-3.352-4.5a1.694,1.694,0,0,0-2.037-.713,4.37,4.37,0,0,1-4.684-1.846,4.833,4.833,0,0,1,1.772-6.554,4.608,4.608,0,0,1,6.367,1.526,4.357,4.357,0,0,1-.042,4.282,1.753,1.753,0,0,0,.2,2.281c1.3,1.564,2.472,3.236,3.724,4.843a2.49,2.49,0,0,1,.509,2.13c-.463,2.552-.859,5.113-1.278,7.67-.279,1.709.006,2.442,1.513,3.7a5.317,5.317,0,0,0,.356-.93c.8-4.8,1.58-9.61,2.386-14.414a2.562,2.562,0,0,0-.533-2.13q-3.93-5.109-7.8-10.264a1.164,1.164,0,0,0-1.459-.475,4.383,4.383,0,0,1-5.507-3.412,5.1,5.1,0,0,1,3.315-5.369,4.568,4.568,0,0,1,4.721,1.109,4.372,4.372,0,0,1,.533,5.365,1.208,1.208,0,0,0,.071,1.606c2.686,3.531,5.34,7.087,8.042,10.605a3.138,3.138,0,0,1,.676,2.662q-1.5,8.606-2.855,17.227a2.5,2.5,0,0,0,.386,1.731q9.332,12.414,18.742,24.766c.15.2.313.386.595.732a7.142,7.142,0,0,0,.417-1.12c.568-3.3,1.144-6.592,1.641-9.9a2.319,2.319,0,0,0-.378-1.573c-1.69-2.324-3.463-4.587-5.188-6.884a1.158,1.158,0,0,0-1.462-.446c-4.083,1.172-7.616-.213-9.392-3.613-2.052-3.929.036-9.207,4.344-10.976a4.713,4.713,0,0,1,1.235-.453c1.045-.1,1.419-.649,1.578-1.628,1.418-8.757,2.876-17.51,4.32-26.265.223-1.352-.126-1.645-1.5-1.275-4.1,1.1-7.792-.518-9.3-4.2a7.613,7.613,0,0,1,.772-7.243,1.312,1.312,0,0,0-.036-1.761q-2.923-3.719-5.763-7.5a2.216,2.216,0,0,0-1.7-.919c-5.507-.563-11.009-1.164-16.517-1.727a2.641,2.641,0,0,1-1.977-1.115c-3.17-4.215-6.377-8.4-9.537-12.625a1.849,1.849,0,0,0-2.167-.824,4.224,4.224,0,0,1-4.5-2.03,4.772,4.772,0,0,1,5.763-6.8,4.421,4.421,0,0,1,2.243,6.458,1.42,1.42,0,0,0-.145,1.17c.648,1.005,1.416,1.931,2.158,2.872.086.11.282.132.547.246.2-1.154.389-2.221.564-3.29.74-4.491,1.45-8.984,2.228-13.47a3.3,3.3,0,0,0-.707-2.9c-1.36-1.661-2.57-3.444-3.923-5.112a2.715,2.715,0,0,0-1.519-.9c-1.429-.258-2.9-.319-4.351-.519-.818-.113-1.046.458-1.367.982a4.687,4.687,0,0,1-5.338,2.419,3.969,3.969,0,0,1-3.149-3.152,4.45,4.45,0,0,1,1.914-4.945,4.511,4.511,0,0,1,4.84-.478,3.506,3.506,0,0,1,2.128,2.444c.138.636.644.781,1.217.84,1.568.162,3.13.368,4.7.482a2.744,2.744,0,0,1,2.2,1.192c1.594,2.188,3.235,4.342,4.9,6.476a2.8,2.8,0,0,1,.552,2.371c-1.077,6.36-2.122,12.725-3.175,19.088a2.107,2.107,0,0,0,1.4,2.546c.278-1.658.552-3.287.824-4.916.9-5.423,1.767-10.851,2.733-16.267a4.157,4.157,0,0,0-.857-3.6c-3.394-4.359-6.7-8.785-10.009-13.211a2.2,2.2,0,0,0-2.61-1.095,4.106,4.106,0,0,1-4.666-2.56,4.6,4.6,0,0,1,1.184-5.219,4.786,4.786,0,0,1,5.491-.816,4.473,4.473,0,0,1,1.7,5.986,1.6,1.6,0,0,0,.154,2c3.712,4.855,7.379,9.744,11.108,14.586a3.243,3.243,0,0,1,.663,2.744c-1.35,7.985-2.651,15.975-3.988,23.962a2.294,2.294,0,0,0,.389,1.824c2.19,3.159,2.176,3.177,6.106,3.6q5.351.571,10.708,1.1a8.192,8.192,0,0,0,1.06-.028l.182-.275c-.854-1.046-1.677-2.122-2.586-3.12a1.886,1.886,0,0,0-1.108-.344q-3.252-.365-6.512-.671a2.458,2.458,0,0,1-1.857-1.022c-.893-1.214-1.776-2.438-2.741-3.594a2.981,2.981,0,0,1-.639-2.6c.663-3.858,1.295-7.72,1.938-11.58.4-2.416.773-4.836,1.22-7.246a2.482,2.482,0,0,0-.5-2.128c-2.436-3.16-4.846-6.341-7.266-9.514a10.182,10.182,0,0,0-2.083-2.229,4.008,4.008,0,0,1-1.386-4.718,4.621,4.621,0,0,1,3.749-3.353,4.3,4.3,0,0,1,4.63,1.8c1.532,2.2.539,5.432-2.046,6.784-1.226.641-1.233.647-.447,1.688,2.27,3.007,4.526,6.025,6.834,9a2.618,2.618,0,0,1,.546,2.2c-1.012,6.112-1.973,12.23-3.019,18.338a3.387,3.387,0,0,0,.763,3.122c.655.721,1.135,1.6,1.8,2.3a2.907,2.907,0,0,0,1.476.825c1.2.229,2.443.307,3.672.422a2.254,2.254,0,0,0,.643-.137c-.051-.2-.094-.407-.157-.6a.847.847,0,0,0-.145-.2c-2.156-3.015-1.867-1.741-1.237-5.658q1.8-11.223,3.69-22.439a2.63,2.63,0,0,0-.515-2.206c-2.414-3.142-4.753-6.343-7.2-9.46a4.08,4.08,0,0,1-.837-3.552c.443-2.294.78-4.6,1.185-6.9a1.768,1.768,0,0,0-.555-1.744,7.684,7.684,0,0,1-1.066-9.147,8.4,8.4,0,0,1,9.014-4.168,7.243,7.243,0,0,1,5.831,6.935,8.255,8.255,0,0,1-5.2,7.925,12.154,12.154,0,0,1-3.575.618c-.661.051-.924.191-1.017.856-.263,1.88-.632,3.751-.863,5.632a2.36,2.36,0,0,0,.363,1.564c2.335,3.167,4.676,6.332,7.135,9.4a4.882,4.882,0,0,1,1.024,4.235c-1.356,7.836-2.609,15.684-3.926,23.525a2.588,2.588,0,0,0,.545,2.193q6.749,8.7,13.441,17.436a1.661,1.661,0,0,0,2.071.637,7.817,7.817,0,0,1,6.711,1.018c3.191,1.971,4.169,7.14,1.806,10.443a1.379,1.379,0,0,0,.038,2.034,2.481,2.481,0,0,1,.436,2.319q-2.034,12.284-4.042,24.569c-.168,1.024-.31,2.051-.512,3.07a1.259,1.259,0,0,0,.7,1.472,7.543,7.543,0,0,1,2.483,10.849,1.32,1.32,0,0,0,.083,1.809c1.987,2.555,3.906,5.163,5.886,7.724a2.888,2.888,0,0,1,.379,2.427c-.788,4.748-1.557,9.5-2.366,14.243a3.013,3.013,0,0,0,.564,2.532q7.423,9.709,14.783,19.468,11.834,15.611,23.666,31.224c4.432,5.85,8.848,11.711,13.3,17.545.449.589.407.912-.213,1.367-.905.665-1.775,1.385-2.616,2.132-.593.526-.96.448-1.393-.128-2.43-3.235-4.892-6.447-7.336-9.672q-6.876-9.074-13.745-18.154-16.332-21.55-32.667-43.1c-2.714-3.581-5.438-7.153-8.131-10.749a2.236,2.236,0,0,0-1.7-.943c-4.878-.5-9.749-1.05-14.63-1.53a4.082,4.082,0,0,1-3.524-1.961,6.4,6.4,0,0,0-.565-.726c-2.195-2.866-1.09-2.21-4.852-2.634-7.752-.874-15.52-1.663-23.289-2.434a4.256,4.256,0,0,1-3.258-1.789c-3.192-4.3-6.463-8.547-9.69-12.825a1.833,1.833,0,0,0-2.073-.845,7.518,7.518,0,0,1-6.98-2.088,2.826,2.826,0,0,0-1.54-.753q-4.78-.59-9.591-1.011a2.648,2.648,0,0,0-1.586.538c-1.988,1.444-3.932,2.95-5.877,4.452a2.909,2.909,0,0,1-2.211.613q-6.54-.719-13.088-1.4a2.878,2.878,0,0,1-2.109-1.233c-2.5-3.318-5.044-6.61-7.54-9.936a2.713,2.713,0,0,0-2.063-1.127q-4.069-.387-8.124-.862a1.376,1.376,0,0,0-1.5.785,8.322,8.322,0,0,1-10.955,3.13c-4.153-2.312-5.171-8.009-1.481-12.167a8.18,8.18,0,0,1,9.967-1.607,7.266,7.266,0,0,1,3.583,5.211,1.15,1.15,0,0,0,1.206,1.107c3.114.3,6.218.668,9.335.951a3.061,3.061,0,0,1,2.312,1.345c2.425,3.239,4.893,6.445,7.307,9.692a3,3,0,0,0,2.33,1.283c3.375.306,6.738.685,10.1,1.075a2.347,2.347,0,0,0,1.863-.5c1.914-1.494,3.873-2.93,5.78-4.432a3.034,3.034,0,0,1,2.359-.676c2.766.31,5.537.591,8.306.881,1.086.114,1.162.072,1.246-.984a8.587,8.587,0,0,1,1.912-4.795.976.976,0,0,0,.067-1.327,21.986,21.986,0,0,0-1.654-2.1,2.168,2.168,0,0,0-1.248-.586c-8.9-.968-17.8-1.887-26.7-2.88a4.579,4.579,0,0,1-1.865-.978,3.076,3.076,0,0,1-.786-.971,1.726,1.726,0,0,0-2.323-.848,4.206,4.206,0,0,1-5.249-2.84,4.773,4.773,0,0,1,2.736-5.768,4.523,4.523,0,0,1,5.863,1.842,4.206,4.206,0,0,1,.081,3.881,2.011,2.011,0,0,0,.249,2.189,3.915,3.915,0,0,0,3.286,1.815c8.485.844,16.955,1.778,25.434,2.657a2.769,2.769,0,0,1,2.264,1.238c.451.7,1.027,1.321,1.514,2a1.036,1.036,0,0,0,1.421.346,7.966,7.966,0,0,1,6.857.118,7.513,7.513,0,0,1,3,10.5c-.157.281-.326.557-.5.828-.841,1.281-.854,1.289,0,2.423,2.982,3.939,5.98,7.863,8.948,11.812a2.376,2.376,0,0,0,1.759,1q10.522,1.139,21.041,2.3a7.534,7.534,0,0,0,.983-.041,9.9,9.9,0,0,0-.526-.9q-3.753-4.982-7.521-9.952c-.653-.86-.8-.86-1.717-.112a10.253,10.253,0,0,1-11.968.686c-4.539-3.07-5.263-9.212-2.209-13.67a10.691,10.691,0,0,1,12.094-3.947,9.487,9.487,0,0,1,6.049,9.954,2.235,2.235,0,0,0,.453,1.453c4.613,6.133,9.313,12.2,13.858,18.384a4.807,4.807,0,0,0,4.04,2.209c2.069.079,4.111.426,6.17.621a3.977,3.977,0,0,0,1.042-.192,3.861,3.861,0,0,0-.373-.887q-6.786-8.985-13.6-17.953-7.884-10.41-15.749-20.836a2.616,2.616,0,0,0-1.994-1.056c-7.872-.843-15.739-1.717-23.612-2.549a3.288,3.288,0,0,1-2.555-1.389c-1.4-1.949-2.913-3.814-4.337-5.746a2.134,2.134,0,0,0-1.629-.894c-7.33-.774-14.655-1.578-21.988-2.332a2.994,2.994,0,0,1-2.477-1.338,20.279,20.279,0,0,0-1.934-2.521,2.07,2.07,0,0,0-1.192-.634c-1.958-.249-3.932-.425-5.9-.608a2.22,2.22,0,0,1-1.7-.943c-1.035-1.421-2.091-2.829-3.2-4.194a1.939,1.939,0,0,0-1.162-.687c-5.1-.578-10.218-1.091-15.323-1.657a1.338,1.338,0,0,0-1.57.887,4.655,4.655,0,0,1-4.109,2.77,4.175,4.175,0,0,1-4.091-2.073,4.631,4.631,0,0,1,1.455-6.134,4.508,4.508,0,0,1,6.207.583,1.929,1.929,0,0,1,.392.538c.386,1.253,1.36,1.485,2.569,1.6,4.973.474,9.928,1.053,14.9,1.549a2.717,2.717,0,0,1,2.126,1.16c.923,1.3,1.867,2.58,2.9,3.79a2.973,2.973,0,0,0,1.529.9,19.247,19.247,0,0,0,2.907.306,2.55,2.55,0,0,0,.71-.163,2.372,2.372,0,0,0-.228-.679q-2.1-2.823-4.228-5.62-7.512-9.9-15.018-19.815a1.67,1.67,0,0,0-2.091-.737,4.351,4.351,0,0,1-4.75-1.856,4.819,4.819,0,0,1,.458-5.333,4.739,4.739,0,0,1,5.5-1.533,4.32,4.32,0,0,1,2.043,6.374,1.135,1.135,0,0,0,.172,1.461q2.522,3.342,5.051,6.677,9.48,12.512,18.944,25.035a2.77,2.77,0,0,0,2.8,1c-.318-.5-.523-.875-.777-1.211q-5.049-6.68-10.121-13.339a2.346,2.346,0,0,1-.485-1.969c.285-1.618.492-3.246.807-4.86a1.405,1.405,0,0,0-.828-1.772,4.272,4.272,0,0,1-1.752-5.791,4.913,4.913,0,0,1,5.553-2.691,4.179,4.179,0,0,1,3.287,3.9,4.78,4.78,0,0,1-2.972,4.739,1.8,1.8,0,0,0-1.313,1.634c-.2,1.51-.545,3.009-.724,4.519a2.238,2.238,0,0,0,.36,1.486c3.718,4.956,7.485,9.874,11.22,14.816a2.546,2.546,0,0,0,1.9,1.094c4.715.472,9.424.978,14.138,1.457a5.09,5.09,0,0,0,1.033-.146c-.251-.407-.386-.674-.563-.908-2.777-3.673-5.572-7.332-8.325-11.023a1.473,1.473,0,0,0-1.77-.59,6.121,6.121,0,0,1-6.931-2.262c-3.017-4.037-.282-8.994,3.078-10.236A6.9,6.9,0,0,1,222.3,219.8a6.627,6.627,0,0,1,.743,7.573,1.381,1.381,0,0,0,.121,1.647q7.606,9.992,15.162,20.021a3.033,3.033,0,0,0,2.327,1.29c3.373.312,6.735.695,10.1,1.059a4.34,4.34,0,0,1,.656.172l.163-.24a3.965,3.965,0,0,0-.369-.827c-2.466-3.278-4.954-6.54-7.417-9.82a1.522,1.522,0,0,0-1.838-.632,4.314,4.314,0,0,1-4.6-1.657,4.509,4.509,0,0,1,.07-5.305,4.708,4.708,0,0,1,4.5-2.055,4.29,4.29,0,0,1,3.284,6.549,1.476,1.476,0,0,0,.186,1.854c2.712,3.547,5.476,7.057,8.06,10.7a3.888,3.888,0,0,0,3.587,1.953,23.446,23.446,0,0,1,2.485.222.689.689,0,0,0,.528-.194c.073-.109-.016-.367-.1-.515a6,6,0,0,0-.591-.811,3.051,3.051,0,0,1-.6-2.633c.728-4.349,1.433-8.7,2.181-13.049a2.724,2.724,0,0,0-.524-2.3q-3.224-4.173-6.377-8.4a2.34,2.34,0,0,0-1.77-.98c-4.221-.434-8.436-.911-12.659-1.339a2.817,2.817,0,0,1-2.147-1.14c-2.81-3.753-5.667-7.47-8.474-11.225a2.6,2.6,0,0,0-1.976-1.1c-7.169-.739-14.331-1.52-21.5-2.252a3.061,3.061,0,0,1-2.331-1.292c-2.716-3.648-5.508-7.24-8.209-10.9a1.978,1.978,0,0,0-2.293-.853,5.241,5.241,0,0,1-5.5-2.069,5.367,5.367,0,0,1-.417-6.041,6.159,6.159,0,0,1,8.289-2.747,5.594,5.594,0,0,1,1.921,7.916,1.46,1.46,0,0,0,.085,1.915c2.546,3.323,5.083,6.652,7.577,10.014a3.283,3.283,0,0,0,2.518,1.426c5.773.566,11.535,1.207,17.3,1.808a7.584,7.584,0,0,0,1.227-.106c-.473-.641-.8-1.089-1.13-1.529q-3.839-5.073-7.676-10.149a1.248,1.248,0,0,0-1.684-.5,7.655,7.655,0,0,1-8.553-2.066c-2.814-3.232-2.015-8.12.842-10.87,3.96-3.814,11.071-2.531,12.793,2.4a8.048,8.048,0,0,1-.806,7.1,1.1,1.1,0,0,0,.088,1.442q8.635,11.364,17.248,22.747c.944,1.246,1.844,2.528,2.852,3.719a2.485,2.485,0,0,0,1.449.829c2.641.339,5.3.582,7.958.84A4.983,4.983,0,0,0,250.062,219.25Zm-18.444-60.48a4.542,4.542,0,0,0-6.475-.383,4.591,4.591,0,0,0-1.021,6.367,4.8,4.8,0,0,0,7.5-5.984ZM262.21,270.9a4.748,4.748,0,1,0-.75,6.556A4.677,4.677,0,0,0,262.21,270.9Zm24.431-111.317a4.163,4.163,0,1,0-5.173-6.506,4.23,4.23,0,0,0-.81,6.029A4.185,4.185,0,0,0,286.641,159.586ZM237.789,273.962a4.173,4.173,0,1,0-5.225-6.493,4.4,4.4,0,0,0-.871,5.952A4.339,4.339,0,0,0,237.789,273.962ZM216.1,183.156a4.139,4.139,0,0,0-5.857-.471,4.154,4.154,0,1,0,5.2,6.444A4.182,4.182,0,0,0,216.1,183.156Zm83.461,101.031a4.215,4.215,0,0,0,6,.454,4.142,4.142,0,1,0-5.272-6.364A4.233,4.233,0,0,0,299.562,284.187Zm1.722-50.23a4.133,4.133,0,1,0,6.008.519A4.293,4.293,0,0,0,301.284,233.957ZM164.709,259.373a4.127,4.127,0,1,0,5.126,6.452,4.393,4.393,0,0,0,.855-6.018A4.337,4.337,0,0,0,164.709,259.373Zm24.173-69.225a3.922,3.922,0,0,0,5.5.369,3.985,3.985,0,0,0,.686-5.422,3.912,3.912,0,0,0-5.432-.394A3.866,3.866,0,0,0,188.882,190.148Zm25.869,36.236a3.122,3.122,0,0,0,4.879-3.864,3.115,3.115,0,0,0-4.879,3.864Zm39.864-46.671a2.678,2.678,0,0,0-3.793-.24,2.8,2.8,0,0,0-.42,3.8,2.846,2.846,0,0,0,3.776.164A2.71,2.71,0,0,0,254.615,179.713Zm24.2,65.653a2.579,2.579,0,1,0,3.3,3.956,2.585,2.585,0,1,0-3.3-3.956Zm-110.83-17.474a2.737,2.737,0,0,0-.514,3.719,2.774,2.774,0,0,0,3.749.312,2.595,2.595,0,1,0-3.235-4.031ZM261.2,200.545a2.636,2.636,0,0,0-3.756-.3,2.588,2.588,0,0,0-.544,3.659,2.732,2.732,0,0,0,4.3-3.356Zm-18.415,37.129a2.6,2.6,0,1,0-3.705-.355A2.661,2.661,0,0,0,242.786,237.674Zm-62.135-30.446a2.645,2.645,0,0,0,.544-3.735,2.736,2.736,0,0,0-4.238,3.45A2.628,2.628,0,0,0,180.651,207.228ZM268.129,171a2.541,2.541,0,1,0,3.279,3.848A2.536,2.536,0,1,0,268.129,171ZM203.1,212.636a2.726,2.726,0,0,0-4.21,3.447,2.727,2.727,0,0,0,4.21-3.447Zm57.428-45.2a2.588,2.588,0,0,0-3.691-.306,2.558,2.558,0,1,0,3.13,4.036A2.613,2.613,0,0,0,260.528,167.433Zm20.785,92.014a2.666,2.666,0,0,0,.455-3.757,2.722,2.722,0,0,0-4.167,3.5A2.671,2.671,0,0,0,281.313,259.447Zm-85.883-5.662a2.558,2.558,0,0,0,.548-3.645,2.692,2.692,0,0,0-4.265,3.275A2.535,2.535,0,0,0,195.43,253.785Z" fill="#2bb1df"/>
    <path d="M330.713,293.8a11.109,11.109,0,0,0,.985-.585c2.264-1.718,4.513-3.457,6.786-5.165a2.287,2.287,0,0,0,.956-1.589c.417-2.76.845-5.52,1.331-8.273a2.521,2.521,0,0,0-.747-2.051c-1.137-1.558-1.139-1.556-2.753-.383a4.557,4.557,0,0,1-5.916-.486,4.463,4.463,0,0,1-.5-5.368c1.494-2.347,4.123-3.238,6.386-1.888a4.312,4.312,0,0,1,2,2.643,7.164,7.164,0,0,0,2.114,3.887,5.023,5.023,0,0,1,1.236,4.967c-.589,2.59-.963,5.217-1.379,7.834a2.871,2.871,0,0,1-1.193,1.954q-4.533,3.432-9.029,6.912a7.107,7.107,0,0,0-.913,1.035l.2.245a3.525,3.525,0,0,0,.812-.342c3.538-2.685,7.082-5.362,10.572-8.109a2.719,2.719,0,0,0,.735-1.593c.892-5.313,1.737-10.632,2.6-15.948.037-.227.068-.456.126-.679a1.374,1.374,0,0,0-.7-1.692,4.357,4.357,0,0,1-1.227-6.214,4.83,4.83,0,0,1,6.438-1.676,4.4,4.4,0,0,1,1.459,6.033,4.54,4.54,0,0,1-2.882,2.305,1.51,1.51,0,0,0-1.169,1.458q-1.087,6.907-2.2,13.814c-.191,1.194-.416,2.386-.579,3.583a3.084,3.084,0,0,1-1.3,2.175c-4.183,3.157-8.33,6.362-12.506,9.53a2.847,2.847,0,0,0-1.186,1.955q-.654,4.311-1.393,8.614a2.359,2.359,0,0,0,.47,1.972q11.981,15.762,23.927,31.551,11.7,15.446,23.4,30.9c.148.2.271.413.474.723l-2.9,2.08c-.242-.3-.49-.582-.718-.882q-12.538-16.548-25.073-33.1Q336.1,328.966,324.727,314a3.394,3.394,0,0,1-.669-2.837c1.485-8.744,2.917-17.494,4.37-26.241a2.145,2.145,0,0,0-.443-1.812c-1.263-1.6-2.448-3.257-3.7-4.861a2.742,2.742,0,0,1-.53-2.3q1.8-10.821,3.569-21.647c.674-4.09,1.379-8.177,2-12.271a2.386,2.386,0,0,0-.38-1.642q-8.9-11.845-17.878-23.636c-.938-1.239-.986-1.1-2.233-.484a7.941,7.941,0,0,1-8.717-1.386,7.421,7.421,0,0,1-1.391-8.648,10.687,10.687,0,0,1,1.56-2.328c.5-.547.481-.9.1-1.391-1.309-1.7-2.6-3.422-3.9-5.134-.96-1.268-1.9-2.555-2.892-3.795a2.512,2.512,0,0,1-.5-2.138c.956-5.738,1.875-11.48,2.848-17.216a2.35,2.35,0,0,0-.536-2.164,4.609,4.609,0,0,1,.161-5.934,4.9,4.9,0,0,1,5.645-1.274,4.212,4.212,0,0,1,2.325,5.148,4.925,4.925,0,0,1-4.419,3.592,1.131,1.131,0,0,0-1.273,1.105c-.887,5.514-1.818,11.023-2.68,16.54a2.3,2.3,0,0,0,.368,1.569c2.078,2.835,4.236,5.611,6.335,8.432a1.434,1.434,0,0,0,1.861.49,7.177,7.177,0,0,1,7.781,1.566c2.454,2.409,3.009,5.33,1.63,8.675a1.518,1.518,0,0,0,.182,1.663q5.863,7.688,11.707,15.39a2.807,2.807,0,0,0,.711.489c.121-.278.363-.574.337-.828a3.291,3.291,0,0,0-.412-1.575q-4.6-6.177-9.3-12.279a2.486,2.486,0,0,1-.547-2.113c.247-1.362.51-2.728.631-4.1a2.741,2.741,0,0,0-.4-1.723c-1.612-2.243-3.323-4.413-4.975-6.627a2.538,2.538,0,0,0-1.993-1.076c-1.864-.135-3.718-.34-5.571-.546a3.92,3.92,0,0,1-3.216-4.28,4.771,4.771,0,0,1,.1-.595,2.6,2.6,0,0,0-1.01-3.2c-1.508-1.159-1.753-2.924-1.067-4.8a4.986,4.986,0,0,1,4.159-3.118,4.114,4.114,0,0,1,4.321,2.354,4.691,4.691,0,0,1-3.114,6.588c-.74.221-1.183.582-1.219,1.379a6.805,6.805,0,0,0-.147,1.943,2.25,2.25,0,0,0,2.075,1.807c1.972.172,3.928.454,5.9.65a2.223,2.223,0,0,1,1.7.928q3,4.026,6.075,8a2.376,2.376,0,0,1,.455,1.988c-.239,1.361-.51,2.723-.651,4.089a2.391,2.391,0,0,0,.365,1.551c2.485,3.368,5.026,6.695,7.558,10.028a10.808,10.808,0,0,0,.789.821,8.34,8.34,0,0,0,.329-1.013c.4-2.357.739-4.724,1.2-7.072a3.424,3.424,0,0,0-.729-2.98c-3.524-4.576-7-9.19-10.492-13.792-1.6-2.112-3.183-4.241-4.807-6.336a2.593,2.593,0,0,1-.369-2.179c.715-4.322,1.408-8.646,2.148-12.965a1.661,1.661,0,0,0-.758-1.861c-4.127-2.919-3.746-9.181.717-12.183a7.217,7.217,0,0,1,9.6,10.7,7.564,7.564,0,0,1-5.656,2.825A1.049,1.049,0,0,0,316.6,179c-.645,4.01-1.337,8.016-1.954,12.029a2.159,2.159,0,0,0,.339,1.49q7.055,9.413,14.183,18.769c1.018,1.341.971,1.223,2.5.249a5.719,5.719,0,0,0,2.907-4.739,64.912,64.912,0,0,1,1.092-6.645,1.574,1.574,0,0,0-.585-1.7c-3.825-3.156-2.822-8.793,1.978-10.826a5.747,5.747,0,0,1,6.028.732,5.559,5.559,0,0,1,2.19,5.606,6.61,6.61,0,0,1-5.783,5.576,1.151,1.151,0,0,0-1.126,1.16c-.484,3.014-1,6.025-1.469,9.041a3.054,3.054,0,0,1-1.34,2.156c-1.229.875-2.394,1.842-3.616,2.727a2.165,2.165,0,0,0-.924,1.511q-1.062,6.564-2.151,13.125c-.164.995-.309,1.992-.5,2.983-.263,1.369.607,2.164,1.419,2.958.144.141.69.067.92-.1,1.063-.751,2.1-1.541,3.1-2.379a1.851,1.851,0,0,0,.542-1.028c.545-3.095,1.059-6.195,1.561-9.295a2.65,2.65,0,0,1,1.12-1.8c1.923-1.434,3.8-2.93,5.719-4.367.683-.512.887-.909.38-1.681a4.6,4.6,0,0,1,.35-5.442,4.8,4.8,0,0,1,5.679-1.413,4.355,4.355,0,0,1,2.371,5.14,5.069,5.069,0,0,1-4.927,3.67,3.154,3.154,0,0,0-1.754.529c-2.063,1.49-4.054,3.081-6.092,4.608a2.517,2.517,0,0,0-1.055,1.735c-.463,2.929-.985,5.853-1.445,8.782a2.62,2.62,0,0,1-1.112,1.887c-1.086.769-2.113,1.623-3.188,2.409a.912.912,0,0,0-.241,1.465c.406.564.85.511,1.392.087,1.164-.914,2.378-1.768,3.509-2.721a2.312,2.312,0,0,0,.686-1.24c.339-1.726.647-3.459.861-5.2a3.283,3.283,0,0,1,1.593-2.663A2.22,2.22,0,0,0,341,223.63a4.55,4.55,0,0,1,3.062-4.785c2.549-.766,4.831.087,5.819,2.174a4.832,4.832,0,0,1-1.111,5.26,4.628,4.628,0,0,1-5.447.926,2.305,2.305,0,0,0-3.177,1.872c-.291,1.529-.514,3.067-.767,4.6a3.513,3.513,0,0,0-.073.426,3.464,3.464,0,0,1-1.707,2.884,38.715,38.715,0,0,0-3.457,2.639,2.736,2.736,0,0,0-.9,1.422c-.668,3.685-1.26,7.38-1.867,11.073a4.937,4.937,0,0,0-.014.751,2.45,2.45,0,0,0,2.137-1.927c.492-2.782.981-5.565,1.391-8.354a3.788,3.788,0,0,1,1.675-2.822c1.222-.831,2.356-1.794,3.551-2.667a1.314,1.314,0,0,0,.565-1.765,4.784,4.784,0,0,1,2.021-5.609,4.64,4.64,0,0,1,6.139.9,4.742,4.742,0,0,1,.165,5.172,4.835,4.835,0,0,1-4.985,2.234,3.152,3.152,0,0,0-3.22.867,30.1,30.1,0,0,1-2.823,2.156,2.563,2.563,0,0,0-1.129,1.8c-.468,2.9-.97,5.8-1.408,8.7a2.678,2.678,0,0,1-1.162,1.957c-.874.608-1.684,1.31-2.557,1.92a2.91,2.91,0,0,0-1.273,2.085q-1.368,8.565-2.828,17.122a2.912,2.912,0,0,0,.61,2.514c1.139,1.41,2.173,2.906,3.311,4.317a3.311,3.311,0,0,1,.69,2.846c-.519,2.922-.993,5.85-1.481,8.775C330.723,293.255,330.732,293.419,330.713,293.8ZM313.978,173.54a4.715,4.715,0,0,0,6.553.618,4.55,4.55,0,1,0-5.464-7.252A4.726,4.726,0,0,0,313.978,173.54Zm-5.434,38.7a4.127,4.127,0,0,0,.709-5.9,4.352,4.352,0,0,0-6.694,5.552A4.083,4.083,0,0,0,308.544,212.235Zm33.315-21.083a3.565,3.565,0,1,0-.636,4.853A3.512,3.512,0,0,0,341.859,191.152Zm5.4,34.015a2.915,2.915,0,0,0,.461-3.82,2.8,2.8,0,0,0-4.3,3.532A2.876,2.876,0,0,0,347.261,225.167Zm-10.316,45.114a2.761,2.761,0,0,0-3.793-.264,2.593,2.593,0,1,0,3.335,3.967A2.749,2.749,0,0,0,336.945,270.281ZM300.576,189a2.7,2.7,0,0,0,3.707.325,2.735,2.735,0,0,0,.463-3.709,2.639,2.639,0,0,0-3.756-.365A2.689,2.689,0,0,0,300.576,189Zm46.209,46.5a2.532,2.532,0,0,0,.356-3.662,2.582,2.582,0,0,0-3.683-.282,2.7,2.7,0,0,0-.451,3.764A2.656,2.656,0,0,0,346.785,235.5Zm-1.812-21.891a2.463,2.463,0,0,0,3.656.286,2.573,2.573,0,0,0,.548-3.661,2.625,2.625,0,0,0-3.7-.354A2.574,2.574,0,0,0,344.973,213.606Zm-44.325-42.443a2.606,2.606,0,1,0-3.666-.447A2.6,2.6,0,0,0,300.648,171.163Zm44.357,95.785a2.62,2.62,0,0,0,3.7.291,2.6,2.6,0,1,0-3.314-4A2.684,2.684,0,0,0,345.005,266.948Z" fill="#2bb1df"/>
    <path d="M237.788,309.559c-.2-.326-.321-.589-.493-.817-2.674-3.541-5.332-7.094-8.058-10.594a2.606,2.606,0,0,0-1.61-.9c-5.578-.643-11.172-1.206-16.758-1.81a2.835,2.835,0,0,0-2.2.629c-1.511,1.193-3.019,2.4-4.607,3.478a3.707,3.707,0,0,1-2.086.64c-1.72-.08-3.416-.383-5.128-.554a5.082,5.082,0,0,0-1.456.1,4.348,4.348,0,0,1-5.116-2.36,4.723,4.723,0,0,1,1.043-5.331,4.926,4.926,0,0,1,5.5-.87,4.318,4.318,0,0,1,2.034,5.435c-.444,1.218-.43,1.243.885,1.378,3.492.358,2.321.637,5.2-1.51,1.093-.813,2.131-1.71,3.273-2.443a3.343,3.343,0,0,1,1.929-.572q9.3.906,18.581,1.978a2.59,2.59,0,0,1,1.594.921c3.189,4.129,6.313,8.308,9.471,12.462a4.867,4.867,0,0,0,1.062,1.024c.172.12.516.012.782.008-.041-.255,0-.564-.135-.754-.591-.846-1.227-1.66-1.85-2.483-3.236-4.27-6.484-8.531-9.7-12.817a2.585,2.585,0,0,0-1.971-1.091q-9.636-.987-19.255-2.073a2.06,2.06,0,0,0-2.042.8,4.562,4.562,0,0,1-6.942.4,4.753,4.753,0,0,1,4.89-7.642,4.113,4.113,0,0,1,3.118,3.485,1.053,1.053,0,0,0,1.088,1.023q8.438.879,16.869,1.8c1.171.125,2.338.272,3.514.359a2.454,2.454,0,0,1,1.9,1.077c4.377,5.822,8.787,11.618,13.158,17.444a2.841,2.841,0,0,0,2.191,1.22c1.372.111,2.729.339,4.1.432a2.6,2.6,0,0,1,2.061,1.111c2.033,2.731,4.132,5.413,6.135,8.165a3.6,3.6,0,0,0,2.8,1.571c9.113.922,18.213,1.916,27.318,2.88,2.765.293,5.534.565,8.464.863a3.254,3.254,0,0,0-.3-.833c-2.839-3.767-5.678-7.532-8.565-11.261a2.067,2.067,0,0,0-1.293-.631c-2.732-.339-5.483-.575-8.213-.927a1.93,1.93,0,0,0-2.134.912,4.833,4.833,0,0,1-5.639,1.809,4.253,4.253,0,0,1-2.625-4.932,5.174,5.174,0,0,1,4.511-3.969,4.307,4.307,0,0,1,4.52,3.073,1.42,1.42,0,0,0,1.459,1.207c3,.287,5.989.652,8.988.946a2.7,2.7,0,0,1,2.053,1.132c3.235,4.306,6.515,8.578,9.746,12.887a2.509,2.509,0,0,0,2.051,1.117c.949.037,1.885.2,2.834.246a3.075,3.075,0,0,1,2.433,1.316q6.279,8.317,12.585,16.618,8.31,10.981,16.613,21.968,9.293,12.286,18.583,24.573c.165.218.312.45.536.775l-2.952,2.1c-.173-.187-.354-.351-.5-.542q-14.508-19.152-29.011-38.309-9.1-12.014-18.186-24.033a2.193,2.193,0,0,0-1.627-.915c-8.792-.93-17.58-1.88-26.378-2.776a2.551,2.551,0,0,0-1.587.509c-2.945,2.193-5.873,4.409-8.75,6.69a4.184,4.184,0,0,1-3.313.955c-5.5-.621-11.018-1.171-16.529-1.744-1.616-.168-1.617-.164-2.5,1.271a7.834,7.834,0,0,1-10.072,3.026,7.073,7.073,0,0,1-2.673-10.333,7.6,7.6,0,0,1,6.672-3.787,6.81,6.81,0,0,1,6.464,3.862,6.894,6.894,0,0,1,.6,1.921,1.2,1.2,0,0,0,1.2,1.155q8.52.888,17.03,1.835a2.374,2.374,0,0,0,1.858-.549c1.906-1.5,3.847-2.964,5.773-4.443.269-.207.528-.429.974-.793-.522-.114-.807-.2-1.1-.235q-5.906-.645-11.815-1.27a2.488,2.488,0,0,1-1.843-1.037c-2.164-2.877-4.367-5.724-6.516-8.612a2.688,2.688,0,0,0-2.052-1.131q-7.07-.717-14.128-1.5a2.742,2.742,0,0,0-2.093.668c-3.59,2.764-7.2,5.5-10.781,8.277a3.5,3.5,0,0,1-2.677.8c-3.821-.419-7.652-.78-11.467-1.23a2.032,2.032,0,0,0-2.208.979c-3.611,4.812-10.059,4.636-12.971.563a8.045,8.045,0,0,1,.8-10,8.232,8.232,0,0,1,9.673-1.875,6.961,6.961,0,0,1,3.91,5.432c.124.827.439,1.276,1.381,1.36,3.517.314,7.017.74,10.534,1.053a2.549,2.549,0,0,0,1.6-.471c3.622-2.722,7.2-5.5,10.8-8.248a7.39,7.39,0,0,1,1.508-.918c.632-.274.65-.587.308-1.042-.705-.937-1.405-1.877-2.111-2.813-1.009-1.336-1.979-2.705-3.056-3.985a2.592,2.592,0,0,0-1.514-.9q-6.828-.815-13.685-1.462a2.361,2.361,0,0,0-1.435.488c-2.056,1.5-4.083,3.044-6.092,4.607a2.738,2.738,0,0,1-2.106.632c-5.586-.616-11.18-1.185-16.76-1.838a2.841,2.841,0,0,1-1.7-.908c-.556-.655-1.056-.62-1.8-.337a7.3,7.3,0,0,1-9.005-2.815c-2.435-3.872-.2-9.449,4.339-11.077A7.168,7.168,0,0,1,186.1,299.1c-.842,1.112-.513,1.926.857,2.078,5.188.575,10.377,1.143,15.576,1.646a2.853,2.853,0,0,0,1.752-.534c2.039-1.473,4.03-3.016,6.008-4.573a2.9,2.9,0,0,1,2.275-.623q7.1.79,14.212,1.5a2.884,2.884,0,0,1,2.159,1.147c2.292,3.025,4.607,6.033,6.892,9.062A1.766,1.766,0,0,0,237.788,309.559Zm3.744,18.626a4.733,4.733,0,0,0-6.581-.559,4.55,4.55,0,1,0,5.571,7.161A4.75,4.75,0,0,0,241.532,328.185Zm-57.588-36.311a4.734,4.734,0,0,0-6.647-.545,4.659,4.659,0,0,0-.9,6.531,4.536,4.536,0,0,0,6.534.527A4.664,4.664,0,0,0,183.944,291.874Zm17.563,29.5a4.141,4.141,0,1,0-5.208-6.416,4.139,4.139,0,1,0,5.208,6.416Zm70.044-13.024a2.685,2.685,0,0,0-.539,3.687,2.655,2.655,0,0,0,3.756.4,2.6,2.6,0,1,0-3.217-4.083ZM192.356,297.02a2.673,2.673,0,0,0,3.776.279,2.608,2.608,0,0,0,.488-3.681,2.731,2.731,0,0,0-4.264,3.4Zm8.773-6.688a2.583,2.583,0,0,0,3.748.28,2.659,2.659,0,0,0,.487-3.687,2.728,2.728,0,0,0-3.713-.339A2.656,2.656,0,0,0,201.129,290.332Z" fill="#2bb1df"/>
    <path d="M260.081,39.9c-2.554,37.079-85.38,138.229-85.38,138.229L72.067,280.71a194.222,194.222,0,0,1-5.749-47.04C66.318,126.653,153.072,39.9,260.089,39.9" fill="#9dd4ed"/>
    <path d="M287.34,426.246C381.815,413.321,454.6,332.3,454.6,234.273a195.423,195.423,0,0,0-1.889-27.16l-96.757,96.742c-13.136,23.323-33.222,39.822-59.769,49.061-28.2,9.813-56.429,8.288-83.334-4.967-2.845-1.4-5.561-2.907-8.218-4.459l82.646,82.644" fill="#1d8bca"/>
    <path d="M363.811,286.965a122.374,122.374,0,0,1-7.856,16.89l96.634-96.636.044.038A193.94,193.94,0,0,0,302.981,44.55l-.181-.2c-4.444-.928-8.914-1.692-13.4-2.324A195.119,195.119,0,0,0,261.083,39.9l-.007-.011c0,.031.008.065.01.1h-.079c.024.05.067.135.1.2,2.808,35.344,77.224,128.8,85.1,138.6,7.7,11.846,15.518,24.241,19.68,37.748a106.265,106.265,0,0,1-2.078,70.426ZM261.086,39.9l.095.083h-.045Z" fill="#1e83b0"/>
    <path d="M260.647,39.9h.434" fill="none" stroke="#ee1d46" stroke-miterlimit="10" stroke-width="0.254"/>
    <path d="M287.33,426.169l-82.7-82.679c-28.824-16.839-46.569-42.465-52.78-76.362a103.131,103.131,0,0,1,7.736-62.644c.746-1.619,2.089-4.125,3.9-7.327a107.654,107.654,0,0,1,6.973-11.926c1.342-2.247,2.784-4.641,4.3-7.145L72.193,280.655l-.051.055C93.024,365.191,167.4,426.2,260.26,427.828a199.42,199.42,0,0,0,27.032-1.646" fill="#2bb1df"/>
  </g>
</svg>
